<svg width="25" height="29" viewBox="0 0 25 29" fill="none" xmlns="http://www.w3.org/2000/svg">
<path d="M20.7074 27.2234C19.1584 28.6937 17.467 28.4615 15.839 27.7651C14.116 27.0532 12.5354 27.0222 10.7176 27.7651C8.44145 28.7246 7.24014 28.4461 5.88077 27.2234C-1.83287 19.4386 -0.694795 7.58334 8.06209 7.14999C10.196 7.25833 11.6818 8.29527 12.9305 8.38814C14.7957 8.01669 16.5819 6.94879 18.5735 7.08808C20.9603 7.27381 22.7623 8.20241 23.9478 9.87391C19.0161 12.7681 20.1858 19.129 24.7065 20.9089C23.8055 23.2304 22.6358 25.5364 20.6916 27.2389L20.7074 27.2234ZM12.7725 7.05713C12.5354 3.60581 15.3964 0.758075 18.6842 0.479492C19.1425 4.47251 14.9854 7.44405 12.7725 7.05713Z" fill="black"/>
</svg>
