<svg width="22" height="21" viewBox="0 0 22 21" fill="none" xmlns="http://www.w3.org/2000/svg">
<path d="M20.0257 0H1.33566C1.02934 0 0.73556 0.121687 0.518956 0.338292C0.302351 0.554896 0.180664 0.848675 0.180664 1.155V19.845C0.180664 20.1513 0.302351 20.4451 0.518956 20.6617C0.73556 20.8783 1.02934 21 1.33566 21H10.3947C10.9469 21 11.3947 20.5523 11.3947 20V13.8625C11.3947 13.3102 10.9469 12.8625 10.3947 12.8625H9.66466C9.11238 12.8625 8.66466 12.4148 8.66466 11.8625V10.7125C8.66466 10.1602 9.11238 9.7125 9.66466 9.7125H10.3947C10.9469 9.7125 11.3947 9.26478 11.3947 8.7125V7.35C11.3381 6.79534 11.4036 6.23503 11.5865 5.70836C11.7694 5.18169 12.0654 4.70142 12.4536 4.30123C12.8417 3.90104 13.3128 3.59062 13.8336 3.39175C14.3545 3.19288 14.9125 3.11036 15.4687 3.15C15.987 3.14681 16.5052 3.16257 17.0222 3.19722C17.5312 3.23134 17.9152 3.66232 17.9152 4.17248V5.111C17.9152 5.66328 17.4674 6.111 16.9152 6.111H16.2457C14.9227 6.111 14.6707 6.741 14.6707 7.6545V8.681C14.6707 9.23328 15.1184 9.681 15.6707 9.681H16.6822C17.2857 9.681 17.7517 10.2115 17.6739 10.8099L17.5244 11.9599C17.4596 12.4582 17.0352 12.831 16.5327 12.831H15.6707C15.1184 12.831 14.6707 13.2787 14.6707 13.831V20C14.6707 20.5523 15.1184 21 15.6707 21H20.0257C20.1773 21 20.3275 20.9701 20.4677 20.9121C20.6078 20.854 20.7351 20.769 20.8424 20.6617C20.9496 20.5545 21.0347 20.4271 21.0927 20.287C21.1508 20.1469 21.1807 19.9967 21.1807 19.845V1.155C21.1807 1.00332 21.1508 0.853132 21.0927 0.713001C21.0347 0.57287 20.9496 0.445543 20.8424 0.338292C20.7351 0.23104 20.6078 0.145963 20.4677 0.0879192C20.3275 0.029875 20.1773 0 20.0257 0Z" fill="black"/>
</svg>
