<svg width="22" height="22" viewBox="0 0 22 22" fill="none" xmlns="http://www.w3.org/2000/svg">
<rect x="0.180664" width="21.1805" height="21.1805" rx="6" fill="black"/>
<path d="M10.7711 3.85107C8.85516 3.85107 8.61423 3.8599 7.86144 3.89344C7.10865 3.92874 6.5959 4.04699 6.1467 4.22173C5.67529 4.39853 5.24842 4.67658 4.89617 5.0363C4.53645 5.38855 4.25839 5.81543 4.0816 6.28684C3.90686 6.73516 3.78772 7.24878 3.7533 7.99893C3.71976 8.75349 3.71094 8.99353 3.71094 10.9121C3.71094 12.829 3.71976 13.069 3.7533 13.8218C3.7886 14.5737 3.90686 15.0865 4.0816 15.5357C4.26251 15.9999 4.50344 16.3935 4.89617 16.7862C5.288 17.1789 5.68161 17.4207 6.14582 17.6008C6.5959 17.7755 7.10777 17.8947 7.85967 17.9291C8.61335 17.9626 8.85339 17.9714 10.7711 17.9714C12.6888 17.9714 12.928 17.9626 13.6817 17.9291C14.4327 17.8938 14.9472 17.7755 15.3964 17.6008C15.8675 17.4239 16.2941 17.1458 16.6461 16.7862C17.0388 16.3935 17.2797 15.9999 17.4606 15.5357C17.6345 15.0865 17.7536 14.5737 17.7889 13.8218C17.8225 13.069 17.8313 12.829 17.8313 10.9113C17.8313 8.99353 17.8225 8.75349 17.7889 7.99981C17.7536 7.24879 17.6345 6.73516 17.4606 6.28684C17.2838 5.81543 17.0058 5.38855 16.6461 5.0363C16.2938 4.67658 15.8669 4.39853 15.3955 4.22173C14.9454 4.04699 14.4318 3.92785 13.6808 3.89344C12.9271 3.8599 12.688 3.85107 10.7694 3.85107H10.7711ZM10.1383 5.12367H10.772C12.6571 5.12367 12.8803 5.12985 13.6243 5.16427C14.3127 5.19516 14.6869 5.31077 14.9357 5.40696C15.2649 5.53493 15.5006 5.68849 15.7477 5.93559C15.9948 6.1827 16.1474 6.41745 16.2754 6.74751C16.3725 6.9955 16.4872 7.36969 16.5181 8.05806C16.5525 8.80202 16.5596 9.0253 16.5596 10.9095C16.5596 12.7937 16.5525 13.0178 16.5181 13.7618C16.4872 14.4502 16.3716 14.8235 16.2754 15.0723C16.1614 15.3785 15.9809 15.6555 15.7468 15.8834C15.4997 16.1305 15.2649 16.2832 14.9349 16.4111C14.6877 16.5082 14.3136 16.6229 13.6243 16.6547C12.8803 16.6882 12.6571 16.6962 10.772 16.6962C8.88693 16.6962 8.66277 16.6882 7.9188 16.6547C7.23044 16.6229 6.85713 16.5082 6.60826 16.4111C6.30188 16.2975 6.02456 16.1173 5.79634 15.8834C5.56183 15.6553 5.38096 15.378 5.26682 15.0715C5.17063 14.8235 5.05502 14.4493 5.02413 13.7609C4.99059 13.017 4.98353 12.7937 4.98353 10.9077C4.98353 9.02177 4.99059 8.80026 5.02413 8.05629C5.0559 7.36793 5.17063 6.99374 5.26771 6.74486C5.39567 6.41568 5.54923 6.18005 5.79634 5.93294C6.04344 5.68584 6.27819 5.53316 6.60826 5.4052C6.85713 5.30812 7.23044 5.19339 7.9188 5.16162C8.57011 5.13161 8.82251 5.12279 10.1383 5.12191V5.12367ZM14.5404 6.29566C14.4291 6.29566 14.3189 6.31757 14.2162 6.36015C14.1134 6.40273 14.02 6.46513 13.9413 6.54381C13.8626 6.62248 13.8002 6.71588 13.7576 6.81866C13.7151 6.92145 13.6931 7.03162 13.6931 7.14288C13.6931 7.25414 13.7151 7.36431 13.7576 7.4671C13.8002 7.56989 13.8626 7.66329 13.9413 7.74196C14.02 7.82063 14.1134 7.88304 14.2162 7.92561C14.3189 7.96819 14.4291 7.9901 14.5404 7.9901C14.7651 7.9901 14.9806 7.90084 15.1394 7.74196C15.2983 7.58307 15.3876 7.36758 15.3876 7.14288C15.3876 6.91819 15.2983 6.70269 15.1394 6.54381C14.9806 6.38492 14.7651 6.29566 14.5404 6.29566ZM10.772 7.28585C10.2911 7.27835 9.81349 7.36659 9.367 7.54544C8.92052 7.72428 8.51408 7.99017 8.17134 8.3276C7.8286 8.66504 7.55641 9.06728 7.37062 9.51092C7.18483 9.95456 7.08914 10.4307 7.08914 10.9117C7.08914 11.3927 7.18483 11.8688 7.37062 12.3125C7.55641 12.7561 7.8286 13.1584 8.17134 13.4958C8.51408 13.8332 8.92052 14.0991 9.367 14.278C9.81349 14.4568 10.2911 14.545 10.772 14.5375C11.7238 14.5227 12.6317 14.1341 13.2995 13.4558C13.9674 12.7774 14.3417 11.8636 14.3417 10.9117C14.3417 9.95974 13.9674 9.04596 13.2995 8.3676C12.6317 7.68924 11.7238 7.3007 10.772 7.28585ZM10.772 8.55757C11.0811 8.55757 11.3872 8.61845 11.6727 8.73673C11.9583 8.85501 12.2177 9.02838 12.4363 9.24694C12.6549 9.4655 12.8282 9.72497 12.9465 10.0105C13.0648 10.2961 13.1257 10.6022 13.1257 10.9113C13.1257 11.2203 13.0648 11.5264 12.9465 11.812C12.8282 12.0975 12.6549 12.357 12.4363 12.5756C12.2177 12.7941 11.9583 12.9675 11.6727 13.0858C11.3872 13.2041 11.0811 13.2649 10.772 13.2649C10.1478 13.2649 9.54909 13.017 9.10769 12.5756C8.66629 12.1342 8.41831 11.5355 8.41831 10.9113C8.41831 10.287 8.66629 9.68835 9.10769 9.24694C9.54909 8.80554 10.1478 8.55757 10.772 8.55757Z" fill="white"/>
</svg>
