<svg width="23" height="21" viewBox="0 0 23 21" fill="none" xmlns="http://www.w3.org/2000/svg">
<path d="M19.9164 0C20.5647 0 21.1865 0.245833 21.6449 0.683417C22.1033 1.121 22.3608 1.71449 22.3608 2.33333V18.6667C22.3608 19.2855 22.1033 19.879 21.6449 20.3166C21.1865 20.7542 20.5647 21 19.9164 21H2.80528C2.15698 21 1.53522 20.7542 1.0768 20.3166C0.618379 19.879 0.36084 19.2855 0.36084 18.6667V2.33333C0.36084 1.71449 0.618379 1.121 1.0768 0.683417C1.53522 0.245833 2.15698 0 2.80528 0H19.9164ZM19.3053 18.0833V11.9C19.3053 10.8913 18.8855 9.9239 18.1383 9.21064C17.391 8.49737 16.3776 8.09667 15.3208 8.09667C14.282 8.09667 13.072 8.70333 12.4853 9.61333V8.31833H9.07528V18.0833H12.4853V12.3317C12.4853 11.4333 13.2431 10.6983 14.1842 10.6983C14.638 10.6983 15.0732 10.8704 15.3941 11.1767C15.715 11.483 15.8953 11.8985 15.8953 12.3317V18.0833H19.3053ZM5.10306 6.48667C5.64764 6.48667 6.16991 6.28017 6.55499 5.9126C6.94006 5.54502 7.1564 5.04649 7.1564 4.52667C7.1564 3.44167 6.23973 2.555 5.10306 2.555C4.55524 2.555 4.02986 2.76273 3.64249 3.13249C3.25513 3.50225 3.03751 4.00375 3.03751 4.52667C3.03751 5.61167 3.9664 6.48667 5.10306 6.48667ZM6.80195 18.0833V8.31833H3.4164V18.0833H6.80195Z" fill="black"/>
</svg>
