<svg width="27" height="30" viewBox="0 0 27 30" fill="none" xmlns="http://www.w3.org/2000/svg">
<path d="M12.7769 14.0784L0.432617 26.898C0.571206 27.3849 0.820293 27.8341 1.16084 28.211C1.50138 28.5879 1.92436 28.8827 2.39745 29.0728C2.87054 29.2628 3.38121 29.3432 3.89043 29.3076C4.39964 29.2721 4.89391 29.1216 5.33546 28.8677L19.2255 21.0263L12.7769 14.0784Z" fill="#EA4335"/>
<path d="M25.145 11.9502L19.2537 8.49146L12.6226 14.4568L19.2806 21.1893L25.1269 17.7675C25.6449 17.4895 26.0787 17.0715 26.3814 16.5588C26.6842 16.0461 26.8442 15.4582 26.8442 14.8589C26.8442 14.2595 26.6842 13.6717 26.3814 13.1589C26.0787 12.6462 25.6449 12.2282 25.1269 11.9502H25.145Z" fill="#FBBC04"/>
<path d="M0.541617 2.9043C0.467996 3.17269 0.431345 3.44963 0.432651 3.72767V25.9532C0.433513 26.2312 0.470027 26.5077 0.541617 26.7763L13.1305 14.5187L0.541617 2.9043Z" fill="#4285F4"/>
<path d="M12.8509 15.0943L19.2255 8.78826L5.37374 0.834588C4.8526 0.528563 4.25984 0.366446 3.65585 0.364751C2.92665 0.363489 2.21703 0.601189 1.63513 1.04163C1.05322 1.48207 0.630934 2.10111 0.432617 2.8044L12.8509 15.0943Z" fill="#34A853"/>
</svg>
